<svg fill="none" height="24" viewBox="0 0 24 24" width="24" xmlns="http://www.w3.org/2000/svg"><g clip-rule="evenodd" fill-rule="evenodd"><g fill="#3747d6"><path d="m9 15c0-.5523.44772-1 1-1h4c.5523 0 1 .4477 1 1v6c0 .5523-.4477 1-1 1h-4c-.55228 0-1-.4477-1-1zm2 1v4h2v-4z"/><path d="m2 15c0-.5523.44772-1 1-1h4v2h-3v1h3c.55228 0 1 .4477 1 1v3c0 .5523-.44772 1-1 1h-4v-2h3v-1h-3c-.55228 0-1-.4477-1-1z"/><path d="m16 22h-2v-2h2z"/><path d="m17 21v-7h2v6h2v2h-3c-.5523 0-1-.4477-1-1z"/><path d="m9.5227 7.12437c.5853.21947 1.4609.37566 2.4773.37566s1.892-.15619 2.4773-.37566c.2963-.11113.4667-.21932.545-.28873.0169-.01502.0256-.02442.0288-.02814-.0085.01131-.0511.07508-.0511.19253h2c0 .59579-.3256 1.04366-.6509 1.33213-.3266.28951-.742.50454-1.1695.66486-.8625.32342-1.9869.50302-3.1796.50302s-2.3171-.1796-3.17955-.50302c-.42753-.16032-.84298-.37535-1.16952-.66486-.32537-.28847-.65093-.73634-.65093-1.33213h2c0-.11734-.04248-.18109-.05108-.1925.00323.00375.01193.01313.02883.02811.07828.06941.24862.1776.54495.28873zm-.57529-.31871c.00003 0 .00057.00062.00151.00187-.00108-.00124-.00155-.00187-.00151-.00187zm6.10519 0s-.0004.00061-.0015.00184c.0009-.00123.0015-.00184.0015-.00184z"/></g><path d="m9 10.3543v-6.8543h-2v7c0 .5958.32556 1.0437.65093 1.3321.32654.2895.74199.5046 1.16952.6649.86245.3234 1.98685.503 3.17955.503s2.3171-.1796 3.1796-.503c.4275-.1603.8429-.3754 1.1695-.6649.3253-.2884.6509-.7363.6509-1.3321v-7h-2v6.8543c-.0863.0693-.2518.1685-.5227.27-.5853.2195-1.4609.3757-2.4773.3757s-1.892-.1562-2.4773-.3757c-.27085-.1015-.43645-.2007-.5227-.27zm6.0526-.0487s-.0004.0006-.0015.0019c.0009-.0013.0015-.0019.0015-.0019zm-6.10369.0019c-.00107-.0012-.00154-.0019-.0015-.0019.00003 0 .00057.0006.0015.0019z" fill="#9545ed"/><path d="m8.94741 3.69437c-.00004 0 .00043-.00062.0015-.00186-.00094.00124-.00147.00186-.0015.00186zm.28843-.19437c.07842-.03967.17341-.08179.28686-.12433.5853-.21948 1.4609-.37567 2.4773-.37567s1.892.15619 2.4773.37567c.1135.04254.2084.08466.2869.12433-.0785.03967-.1734.08179-.2869.12433-.5853.21948-1.4609.37567-2.4773.37567s-1.892-.15619-2.4773-.37567c-.11345-.04254-.20844-.08466-.28686-.12433zm5.81676.19437s-.0006-.00062-.0015-.00187c.0011.00125.0015.00187.0015.00187zm-.0015-.38691c.0009-.00122.0015-.00183.0015-.00183s-.0004.00061-.0015.00183zm-6.10218.00004c-.00108-.00125-.00155-.00187-.00151-.00187.00003 0 .00057.00062.00151.00187zm-.12847-1.80449c.86245-.32342 1.98685-.50301 3.17955-.50301s2.3171.17959 3.1796.50301c.4275.16033.8429.37536 1.1695.66486.3253.28848.6509.73634.6509 1.33213s-.3256 1.04365-.6509 1.33213c-.3266.2895-.742.50453-1.1695.66486-.8625.32342-1.9869.50301-3.1796.50301s-2.3171-.17959-3.17955-.50301c-.42753-.16033-.84298-.37536-1.16952-.66486-.32537-.28848-.65093-.73634-.65093-1.33213s.32556-1.04365.65093-1.33213c.32654-.2895.74199-.50453 1.16952-.66486z" fill="#3747d6"/></g></svg>