<svg id="Layer_1" enable-background="new 0 0 512 512" viewBox="0 0 512 512" xmlns="http://www.w3.org/2000/svg"><g><path d="m448.968 168.463v280.281c0 26.099-21.157 47.256-47.256 47.256h-291.423c-26.099 0-47.256-21.157-47.256-47.256v-385.488c-.001-26.099 21.156-47.256 47.256-47.256h195.188z" fill="#ff9100"/><path d="m448.968 168.463h-111.987c-17.399 0-31.504-14.105-31.504-31.504v-120.959z" fill="#ffb864"/><g fill="#fff"><path d="m187.946 351.464c0-3.323-1.169-5.907-3.507-7.753-2.369-1.877-6.492-3.784-12.368-5.753-5.907-2-10.737-3.907-14.491-5.753-12.183-5.999-18.275-14.214-18.275-24.674 0-5.23 1.508-9.814 4.553-13.814 3.046-3.969 7.322-7.076 12.891-9.291 5.538-2.215 11.783-3.323 18.736-3.323 6.768 0 12.829 1.2 18.183 3.6 5.353 2.431 9.537 5.846 12.491 10.307 2.984 4.461 4.461 9.568 4.461 15.291h-22.613c0-3.846-1.169-6.799-3.507-8.922-2.369-2.123-5.538-3.169-9.537-3.169-4.061 0-7.261.892-9.599 2.677s-3.507 4.061-3.507 6.83c0 2.4 1.292 4.584 3.876 6.553s7.107 4 13.629 6.061c6.492 2.092 11.845 4.338 16.029 6.768 10.153 5.846 15.229 13.937 15.229 24.213 0 8.245-3.107 14.706-9.291 19.383-6.215 4.707-14.706 7.045-25.536 7.045-7.599 0-14.522-1.354-20.705-4.092-6.184-2.738-10.83-6.492-13.937-11.23-3.138-4.769-4.707-10.245-4.707-16.46h22.767c0 5.046 1.292 8.768 3.907 11.137 2.584 2.4 6.83 3.6 12.676 3.6 3.753 0 6.707-.8 8.891-2.431 2.185-1.601 3.261-3.878 3.261-6.8z"/><path d="m302.026 331.343c0 8.707-1.415 16.306-4.307 22.798-2.892 6.461-6.892 11.66-11.968 15.598l15.198 11.999-14.029 11.906-20.213-16.275c-1.907.246-3.784.369-5.692.369-7.999 0-15.106-1.846-21.321-5.538-6.215-3.723-11.045-9.014-14.491-15.906-3.477-6.892-5.292-14.829-5.415-23.782v-4.953c0-9.261 1.692-17.414 5.076-24.428 3.384-7.015 8.215-12.46 14.46-16.275 6.276-3.846 13.475-5.753 21.567-5.753 7.968 0 15.075 1.877 21.321 5.661 6.245 3.815 11.106 9.199 14.552 16.183 3.477 7.015 5.23 15.045 5.261 24.09v4.306zm-23.043-3.938c0-9.322-1.569-16.429-4.676-21.29-3.138-4.83-7.599-7.261-13.414-7.261-5.999 0-10.491 2.4-13.506 7.168-3.015 4.799-4.553 11.783-4.584 21.013v4.307c0 9.261 1.508 16.367 4.584 21.29 3.046 4.953 7.599 7.415 13.629 7.415 5.784 0 10.184-2.431 13.291-7.292 3.077-4.892 4.615-11.876 4.676-21.013z"/><path d="m336.3 359.001h39.473v17.444h-62.147v-94.051h22.674z"/></g></g></svg>